<svg version="1.1" id="Layer_1" xmlns="http://www.w3.org/2000/svg" xmlns:xlink="http://www.w3.org/1999/xlink" x="0px" y="0px"
	 width="100%" viewBox="0 0 600 600" enable-background="new 0 0 600 600" xml:space="preserve">
<path fill="#000000" opacity="1.000000" stroke="none" 
	d="
M417.000000,601.000000 
	C278.028839,601.000000 139.557678,601.000000 1.043253,601.000000 
	C1.043253,401.070496 1.043253,201.140961 1.043253,1.105713 
	C200.887833,1.105713 400.775726,1.105713 600.831787,1.105713 
	C600.831787,200.999878 600.831787,400.999939 600.831787,601.000000 
	C539.807556,601.000000 478.653778,601.000000 417.000000,601.000000 
M93.483810,135.989502 
	C94.652946,138.624222 95.945343,141.211914 96.971474,143.901199 
	C104.335068,163.199829 112.026436,182.385162 118.860283,201.870712 
	C125.270889,220.149429 130.500778,238.839966 136.767273,257.172516 
	C139.500687,265.169098 143.427979,272.770538 147.072159,280.428131 
	C147.584167,281.504028 149.578445,281.874573 150.886612,282.571625 
	C150.999207,280.961884 151.674652,279.125092 151.131912,277.779724 
	C147.902405,269.774536 143.852448,262.066589 141.075882,253.918777 
	C132.807861,229.656265 125.161163,205.182404 116.948174,180.900574 
	C113.022514,169.294281 108.365723,157.935318 103.496925,145.023956 
	C105.903664,146.443604 107.483025,146.904312 108.344780,147.954086 
	C121.464272,163.936172 134.706863,179.824860 147.479706,196.081833 
	C161.810410,214.321609 175.281631,233.249100 189.936401,251.217072 
	C198.337006,261.516907 208.314835,270.535767 217.699677,280.015381 
	C218.324585,280.646576 219.943634,280.293579 221.100311,280.398346 
	C221.078201,279.122284 221.411224,277.689758 220.936783,276.613037 
	C220.435684,275.475830 219.135483,274.704895 218.234802,273.727478 
	C206.617920,261.121002 194.281906,249.092087 183.559784,235.764999 
	C164.455948,212.019867 146.094208,187.663727 127.878105,163.223282 
	C116.061737,147.369324 99.791069,135.263809 90.031509,117.706604 
	C89.548317,116.837379 87.347664,116.922836 85.946724,116.563751 
	C85.933220,117.850914 85.504974,119.320381 85.976952,120.394150 
	C88.193810,125.437668 90.657997,130.372467 93.483810,135.989502 
M450.000061,229.492859 
	C453.772491,217.750839 457.731110,206.064758 461.278473,194.255127 
	C468.626099,169.794006 477.131805,145.610855 479.967529,120.017479 
	C480.146423,118.402962 479.563843,116.704063 479.335510,115.044449 
	C477.633728,116.158165 475.248657,116.877380 474.340942,118.449554 
	C468.407501,128.726334 463.024323,139.322617 457.032104,149.563339 
	C439.806152,179.002396 422.998901,208.711807 402.474152,236.079437 
	C398.411407,241.496658 394.557709,247.085526 390.923279,252.796158 
	C390.221375,253.899017 390.991241,255.938538 391.082184,257.545990 
	C392.417725,256.895752 394.189819,256.582550 395.003174,255.529160 
	C397.060944,252.864105 398.435120,249.665665 400.526520,247.033081 
	C422.056305,219.931564 439.001831,189.852249 456.937164,160.416870 
	C461.300934,153.255066 465.518341,146.004044 470.550110,137.536850 
	C470.773773,140.112946 471.170349,141.260071 470.912140,142.233490 
	C468.196350,152.470444 465.665161,162.769531 462.523895,172.877716 
	C456.104828,193.533493 449.489777,214.131454 442.678864,234.661453 
	C436.083771,254.540833 430.770294,274.924866 420.347687,293.366791 
	C419.957275,294.057587 420.387421,295.788483 421.028198,296.320740 
	C421.647400,296.835022 423.300446,296.816193 424.019287,296.326660 
	C425.014862,295.648651 425.765350,294.399872 426.267761,293.242279 
	C429.901794,284.869019 433.775635,276.578888 436.942200,268.028595 
	C441.559906,255.560028 445.648773,242.895615 450.000061,229.492859 
M234.344147,379.962219 
	C240.340225,377.715637 246.383881,375.583344 252.291656,373.124603 
	C253.452133,372.641602 254.087631,370.897217 254.965256,369.734589 
	C253.611801,369.348755 252.011459,368.289154 250.942886,368.680695 
	C239.519989,372.866547 227.814728,376.524170 216.900482,381.802216 
	C197.834351,391.022430 179.281799,401.302795 160.490295,411.093384 
	C138.826889,422.380280 117.153381,433.648163 95.438622,444.835693 
	C92.925789,446.130341 89.759743,448.187195 87.527390,447.578156 
	C82.718346,446.266205 81.607025,449.140137 79.123146,453.233093 
	C81.517609,453.558807 83.437317,454.418976 84.876579,453.912842 
	C91.353889,451.635132 97.946632,449.463074 104.039062,446.354065 
	C124.515007,435.904999 144.715897,424.917664 165.171494,414.427765 
	C187.875595,402.784821 210.743774,391.461823 234.344147,379.962219 
M174.283752,356.962250 
	C173.618469,356.979523 172.909073,356.850189 172.294235,357.035126 
	C144.231705,365.478149 116.190636,373.993011 88.105278,382.359161 
	C84.627312,383.395203 83.061310,384.979889 84.441849,388.982025 
	C85.423264,388.982025 86.634583,389.264313 87.648392,388.936218 
	C94.193420,386.818207 100.638573,384.378754 107.221596,382.393250 
	C130.371475,375.411072 153.520096,368.417908 176.754578,361.725311 
	C194.014694,356.753632 211.581497,353.224579 229.553986,351.911957 
	C231.196411,351.791992 232.749054,350.442596 234.343384,349.664093 
	C233.063004,347.871399 231.956696,347.027222 230.884918,347.068970 
	C225.145798,347.292542 219.308075,347.166779 213.703369,348.220154 
	C200.742081,350.656158 187.895050,353.700317 174.283752,356.962250 
M516.699829,379.965729 
	C508.491455,376.318604 500.369751,372.458954 492.056702,369.068420 
	C474.565674,361.934601 456.964661,355.070831 439.427246,348.050140 
	C426.643341,342.932434 413.906403,337.696442 401.088348,332.666626 
	C400.063721,332.264587 398.569977,333.058167 397.294220,333.296143 
	C397.765503,334.521118 398.078918,335.847229 398.772308,336.929932 
	C399.138794,337.502197 400.153625,337.683655 400.898438,337.985626 
	C419.001617,345.324188 437.099457,352.676025 455.215454,359.982849 
	C483.474670,371.380798 512.218933,381.661346 539.057861,396.619995 
	C541.590332,392.595245 538.770630,390.528351 536.098816,389.096222 
	C530.017212,385.836517 523.705994,383.005188 516.699829,379.965729 
M428.494873,388.996674 
	C432.748962,391.919006 437.255829,394.536224 441.214020,397.815674 
	C459.953033,413.341431 478.527985,429.065094 497.197357,444.675201 
	C500.757782,447.652191 504.480438,450.435150 508.186218,453.353302 
	C509.340302,452.140747 510.127045,451.314148 511.212769,450.173462 
	C509.009644,448.156525 506.909027,446.216064 504.789673,444.296265 
	C497.839447,438.000366 491.063141,431.496643 483.884521,425.472443 
	C473.787323,416.998962 463.669739,408.501251 453.045685,400.717072 
	C441.225952,392.056824 429.092194,383.752075 416.583557,376.132294 
	C408.959991,371.488281 400.403351,368.356018 392.185303,364.727081 
	C390.766846,364.100708 387.870819,363.740845 387.496521,364.363525 
	C385.891327,367.033722 387.984161,367.959778 390.244019,369.093262 
	C402.880035,375.431061 415.407227,381.985901 428.494873,388.996674 
M231.007446,312.488831 
	C234.045532,309.869049 237.083603,307.249268 240.181824,304.577637 
	C241.610916,308.440552 242.529099,311.847107 244.147766,314.879791 
	C244.878479,316.248810 248.105087,317.912079 248.327606,317.676178 
	C250.762878,315.094696 254.076309,312.415894 254.711121,309.271057 
	C255.753708,304.106201 254.993591,298.577454 254.993591,292.862732 
	C257.397247,291.006439 260.406219,288.682678 263.415161,286.358887 
	C263.225098,285.742493 263.035034,285.126068 262.844971,284.509674 
	C260.929291,284.667206 258.634796,284.204102 257.168945,285.098694 
	C252.772385,287.781952 248.521622,290.778961 244.539001,294.049347 
	C237.343826,299.957703 230.403275,306.175232 223.317429,312.217987 
	C220.340561,314.756622 220.609085,316.598419 224.745789,319.085449 
	C226.624466,317.099365 228.564835,315.048065 231.007446,312.488831 
M361.058868,283.560364 
	C360.303894,289.397949 367.460022,289.132538 368.473206,293.610382 
	C368.049652,294.505127 366.986359,295.667114 367.094391,296.707489 
	C367.607269,301.646912 368.047211,306.652435 369.260010,311.445404 
	C370.684998,317.077148 374.549927,317.807892 378.801910,313.697571 
	C383.282654,309.366150 384.548798,309.723053 387.106903,315.363190 
	C387.650940,316.562714 389.607239,317.121796 390.912872,317.975922 
	C391.278259,316.559113 391.938782,315.138123 391.918701,313.726807 
	C391.901581,312.526520 391.375549,311.107574 390.601624,310.180054 
	C384.824371,303.256348 379.348724,295.995422 372.883545,289.769562 
	C369.922668,286.918213 367.355621,281.957947 361.058868,283.560364 
M204.015503,373.480499 
	C209.079514,371.990692 214.189636,370.634308 219.173004,368.911255 
	C220.325836,368.512665 221.045319,366.860809 221.964203,365.785645 
	C220.570389,365.202454 218.924683,363.813751 217.821121,364.158875 
	C204.574692,368.301178 190.787704,371.084290 178.878769,378.724243 
	C177.670914,379.499115 177.240479,381.485809 176.449249,382.910156 
	C178.175323,382.892853 180.083755,383.353821 181.596512,382.776978 
	C188.902847,379.991211 196.102737,376.926300 204.015503,373.480499 
M435.586243,363.955902 
	C423.546082,360.090546 411.505920,356.225220 399.394257,352.336945 
	C398.049652,358.245026 402.316711,358.079620 404.702942,359.156250 
	C421.322144,366.654449 439.672546,370.860992 443.859528,367.389496 
	C441.061340,366.117310 438.731171,365.057892 435.586243,363.955902 
M321.680328,335.031586 
	C315.608765,338.053680 309.537231,341.075775 303.711395,343.975555 
	C305.889984,347.666992 307.297729,350.397705 309.062805,352.873718 
	C309.772644,353.869415 311.247681,354.789215 312.409851,354.834442 
	C313.241150,354.866791 314.390228,353.527649 314.929871,352.543915 
	C315.608063,351.307556 315.827301,349.814423 316.212067,348.423096 
	C317.338348,344.350555 319.308899,341.260620 323.769104,339.918518 
	C326.812653,339.002716 329.570862,337.138733 332.735443,335.559570 
	C328.696838,330.303589 325.612671,334.171539 321.680328,335.031586 
M319.519318,313.957153 
	C316.565765,313.884949 313.515076,313.331512 310.691101,313.901428 
	C308.640350,314.315247 306.889526,316.215179 305.004974,317.452454 
	C306.544464,318.969055 308.065399,320.505371 309.638916,321.985809 
	C309.958344,322.286377 310.554840,322.285706 310.889954,322.577423 
	C314.053284,325.331329 318.404144,325.097443 321.829498,321.534363 
	C324.677185,318.572205 322.291595,316.244751 319.519318,313.957153 
z"/>
<path fill="#FFFFFF" opacity="1.000000" stroke="none" 
	d="
M93.258850,135.667786 
	C90.657997,130.372467 88.193810,125.437668 85.976952,120.394150 
	C85.504974,119.320381 85.933220,117.850914 85.946724,116.563751 
	C87.347664,116.922836 89.548317,116.837379 90.031509,117.706604 
	C99.791069,135.263809 116.061737,147.369324 127.878105,163.223282 
	C146.094208,187.663727 164.455948,212.019867 183.559784,235.764999 
	C194.281906,249.092087 206.617920,261.121002 218.234802,273.727478 
	C219.135483,274.704895 220.435684,275.475830 220.936783,276.613037 
	C221.411224,277.689758 221.078201,279.122284 221.100311,280.398346 
	C219.943634,280.293579 218.324585,280.646576 217.699677,280.015381 
	C208.314835,270.535767 198.337006,261.516907 189.936401,251.217072 
	C175.281631,233.249100 161.810410,214.321609 147.479706,196.081833 
	C134.706863,179.824860 121.464272,163.936172 108.344780,147.954086 
	C107.483025,146.904312 105.903664,146.443604 103.496925,145.023956 
	C108.365723,157.935318 113.022514,169.294281 116.948174,180.900574 
	C125.161163,205.182404 132.807861,229.656265 141.075882,253.918777 
	C143.852448,262.066589 147.902405,269.774536 151.131912,277.779724 
	C151.674652,279.125092 150.999207,280.961884 150.886612,282.571625 
	C149.578445,281.874573 147.584167,281.504028 147.072159,280.428131 
	C143.427979,272.770538 139.500687,265.169098 136.767273,257.172516 
	C130.500778,238.839966 125.270889,220.149429 118.860283,201.870712 
	C112.026436,182.385162 104.335068,163.199829 96.971474,143.901199 
	C95.945343,141.211914 94.652946,138.624222 93.258850,135.667786 
z"/>
<path fill="#FFFFFF" opacity="1.000000" stroke="none" 
	d="
M449.981567,229.903778 
	C445.648773,242.895615 441.559906,255.560028 436.942200,268.028595 
	C433.775635,276.578888 429.901794,284.869019 426.267761,293.242279 
	C425.765350,294.399872 425.014862,295.648651 424.019287,296.326660 
	C423.300446,296.816193 421.647400,296.835022 421.028198,296.320740 
	C420.387421,295.788483 419.957275,294.057587 420.347687,293.366791 
	C430.770294,274.924866 436.083771,254.540833 442.678864,234.661453 
	C449.489777,214.131454 456.104828,193.533493 462.523895,172.877716 
	C465.665161,162.769531 468.196350,152.470444 470.912140,142.233490 
	C471.170349,141.260071 470.773773,140.112946 470.550110,137.536850 
	C465.518341,146.004044 461.300934,153.255066 456.937164,160.416870 
	C439.001831,189.852249 422.056305,219.931564 400.526520,247.033081 
	C398.435120,249.665665 397.060944,252.864105 395.003174,255.529160 
	C394.189819,256.582550 392.417725,256.895752 391.082184,257.545990 
	C390.991241,255.938538 390.221375,253.899017 390.923279,252.796158 
	C394.557709,247.085526 398.411407,241.496658 402.474152,236.079437 
	C422.998901,208.711807 439.806152,179.002396 457.032104,149.563339 
	C463.024323,139.322617 468.407501,128.726334 474.340942,118.449554 
	C475.248657,116.877380 477.633728,116.158165 479.335510,115.044434 
	C479.563843,116.704063 480.146423,118.402962 479.967529,120.017479 
	C477.131805,145.610855 468.626099,169.794006 461.278473,194.255127 
	C457.731110,206.064758 453.772491,217.750839 449.981567,229.903778 
z"/>
<path fill="#FFFFFF" opacity="1.000000" stroke="none" 
	d="
M233.942322,379.980865 
	C210.743774,391.461823 187.875595,402.784821 165.171494,414.427765 
	C144.715897,424.917664 124.515007,435.904999 104.039062,446.354065 
	C97.946632,449.463074 91.353889,451.635132 84.876579,453.912842 
	C83.437317,454.418976 81.517609,453.558807 79.123146,453.233093 
	C81.607025,449.140137 82.718346,446.266205 87.527390,447.578156 
	C89.759743,448.187195 92.925789,446.130341 95.438622,444.835693 
	C117.153381,433.648163 138.826889,422.380280 160.490295,411.093384 
	C179.281799,401.302795 197.834351,391.022430 216.900482,381.802216 
	C227.814728,376.524170 239.519989,372.866547 250.942886,368.680695 
	C252.011459,368.289154 253.611801,369.348755 254.965256,369.734589 
	C254.087631,370.897217 253.452133,372.641602 252.291656,373.124603 
	C246.383881,375.583344 240.340225,377.715637 233.942322,379.980865 
z"/>
<path fill="#FFFFFF" opacity="1.000000" stroke="none" 
	d="
M174.642715,356.730042 
	C187.895050,353.700317 200.742081,350.656158 213.703369,348.220154 
	C219.308075,347.166779 225.145798,347.292542 230.884918,347.068970 
	C231.956696,347.027222 233.063004,347.871399 234.343384,349.664093 
	C232.749054,350.442596 231.196411,351.791992 229.553986,351.911957 
	C211.581497,353.224579 194.014694,356.753632 176.754578,361.725311 
	C153.520096,368.417908 130.371475,375.411072 107.221596,382.393250 
	C100.638573,384.378754 94.193420,386.818207 87.648392,388.936218 
	C86.634583,389.264313 85.423264,388.982025 84.441849,388.982025 
	C83.061310,384.979889 84.627312,383.395203 88.105278,382.359161 
	C116.190636,373.993011 144.231705,365.478149 172.294235,357.035126 
	C172.909073,356.850189 173.618469,356.979523 174.642715,356.730042 
z"/>
<path fill="#FFFFFF" opacity="1.000000" stroke="none" 
	d="
M517.093994,379.982758 
	C523.705994,383.005188 530.017212,385.836517 536.098816,389.096222 
	C538.770630,390.528351 541.590332,392.595245 539.057861,396.619995 
	C512.218933,381.661346 483.474670,371.380798 455.215454,359.982849 
	C437.099457,352.676025 419.001617,345.324188 400.898438,337.985626 
	C400.153625,337.683655 399.138794,337.502197 398.772308,336.929932 
	C398.078918,335.847229 397.765503,334.521118 397.294220,333.296143 
	C398.569977,333.058167 400.063721,332.264587 401.088348,332.666626 
	C413.906403,337.696442 426.643341,342.932434 439.427246,348.050140 
	C456.964661,355.070831 474.565674,361.934601 492.056702,369.068420 
	C500.369751,372.458954 508.491455,376.318604 517.093994,379.982758 
z"/>
<path fill="#FFFFFF" opacity="1.000000" stroke="none" 
	d="
M428.233246,388.731628 
	C415.407227,381.985901 402.880035,375.431061 390.244019,369.093262 
	C387.984161,367.959778 385.891327,367.033722 387.496521,364.363525 
	C387.870819,363.740845 390.766846,364.100708 392.185303,364.727081 
	C400.403351,368.356018 408.959991,371.488281 416.583557,376.132294 
	C429.092194,383.752075 441.225952,392.056824 453.045685,400.717072 
	C463.669739,408.501251 473.787323,416.998962 483.884521,425.472443 
	C491.063141,431.496643 497.839447,438.000366 504.789673,444.296265 
	C506.909027,446.216064 509.009644,448.156525 511.212769,450.173462 
	C510.127045,451.314148 509.340302,452.140747 508.186218,453.353302 
	C504.480438,450.435150 500.757782,447.652191 497.197357,444.675201 
	C478.527985,429.065094 459.953033,413.341431 441.214020,397.815674 
	C437.255829,394.536224 432.748962,391.919006 428.233246,388.731628 
z"/>
<path fill="#FFFFFF" opacity="1.000000" stroke="none" 
	d="
M230.756332,312.742798 
	C228.564835,315.048065 226.624466,317.099365 224.745789,319.085449 
	C220.609085,316.598419 220.340561,314.756622 223.317429,312.217987 
	C230.403275,306.175232 237.343826,299.957703 244.539001,294.049347 
	C248.521622,290.778961 252.772385,287.781952 257.168945,285.098694 
	C258.634796,284.204102 260.929291,284.667206 262.844971,284.509674 
	C263.035034,285.126068 263.225098,285.742493 263.415161,286.358887 
	C260.406219,288.682678 257.397247,291.006439 254.993591,292.862732 
	C254.993591,298.577454 255.753708,304.106201 254.711121,309.271057 
	C254.076309,312.415894 250.762878,315.094696 248.327606,317.676178 
	C248.105087,317.912079 244.878479,316.248810 244.147766,314.879791 
	C242.529099,311.847107 241.610916,308.440552 240.181824,304.577637 
	C237.083603,307.249268 234.045532,309.869049 230.756332,312.742798 
z"/>
<path fill="#FFFFFF" opacity="1.000000" stroke="none" 
	d="
M361.374146,283.302490 
	C367.355621,281.957947 369.922668,286.918213 372.883545,289.769562 
	C379.348724,295.995422 384.824371,303.256348 390.601624,310.180054 
	C391.375549,311.107574 391.901581,312.526520 391.918701,313.726807 
	C391.938782,315.138123 391.278259,316.559113 390.912872,317.975922 
	C389.607239,317.121796 387.650940,316.562714 387.106903,315.363190 
	C384.548798,309.723053 383.282654,309.366150 378.801910,313.697571 
	C374.549927,317.807892 370.684998,317.077148 369.260010,311.445404 
	C368.047211,306.652435 367.607269,301.646912 367.094391,296.707489 
	C366.986359,295.667114 368.049652,294.505127 368.473206,293.610382 
	C367.460022,289.132538 360.303894,289.397949 361.374146,283.302490 
z"/>
<path fill="#FFFFFF" opacity="1.000000" stroke="none" 
	d="
M203.677933,373.720398 
	C196.102737,376.926300 188.902847,379.991211 181.596512,382.776978 
	C180.083755,383.353821 178.175323,382.892853 176.449249,382.910156 
	C177.240479,381.485809 177.670914,379.499115 178.878769,378.724243 
	C190.787704,371.084290 204.574692,368.301178 217.821121,364.158875 
	C218.924683,363.813751 220.570389,365.202454 221.964203,365.785645 
	C221.045319,366.860809 220.325836,368.512665 219.173004,368.911255 
	C214.189636,370.634308 209.079514,371.990692 203.677933,373.720398 
z"/>
<path fill="#FFFFFF" opacity="1.000000" stroke="none" 
	d="
M435.993622,363.977203 
	C438.731171,365.057892 441.061340,366.117310 443.859528,367.389496 
	C439.672546,370.860992 421.322144,366.654449 404.702942,359.156250 
	C402.316711,358.079620 398.049652,358.245026 399.394257,352.336945 
	C411.505920,356.225220 423.546082,360.090546 435.993622,363.977203 
z"/>
<path fill="#FFFFFF" opacity="1.000000" stroke="none" 
	d="
M322.071075,334.995300 
	C325.612671,334.171539 328.696838,330.303589 332.735443,335.559570 
	C329.570862,337.138733 326.812653,339.002716 323.769104,339.918518 
	C319.308899,341.260620 317.338348,344.350555 316.212067,348.423096 
	C315.827301,349.814423 315.608063,351.307556 314.929871,352.543915 
	C314.390228,353.527649 313.241150,354.866791 312.409851,354.834442 
	C311.247681,354.789215 309.772644,353.869415 309.062805,352.873718 
	C307.297729,350.397705 305.889984,347.666992 303.711395,343.975555 
	C309.537231,341.075775 315.608765,338.053680 322.071075,334.995300 
z"/>
<path fill="#FFFFFF" opacity="1.000000" stroke="none" 
	d="
M319.915497,313.994568 
	C322.291595,316.244751 324.677185,318.572205 321.829498,321.534363 
	C318.404144,325.097443 314.053284,325.331329 310.889954,322.577423 
	C310.554840,322.285706 309.958344,322.286377 309.638916,321.985809 
	C308.065399,320.505371 306.544464,318.969055 305.004974,317.452454 
	C306.889526,316.215179 308.640350,314.315247 310.691101,313.901428 
	C313.515076,313.331512 316.565765,313.884949 319.915497,313.994568 
z"/>
</svg>